<svg width="32" height="32" viewBox="0 0 32 32" fill="none" xmlns="http://www.w3.org/2000/svg">
<path d="M29.46 10.14C29.1816 9.78037 28.8236 9.49026 28.4141 9.29244C28.0046 9.09463 27.5547 8.99452 27.1 8.99997H10.22L8.76 6.34997C8.52442 5.9357 8.18225 5.59204 7.76902 5.35465C7.35578 5.11725 6.88654 4.99479 6.41 4.99997H3C2.73478 4.99997 2.48043 5.10533 2.29289 5.29287C2.10536 5.4804 2 5.73476 2 5.99997C2 6.26519 2.10536 6.51954 2.29289 6.70708C2.48043 6.89462 2.73478 6.99997 3 6.99997H6.41C6.52835 6.99491 6.64597 7.02085 6.7512 7.07522C6.85644 7.1296 6.94565 7.21052 7.01 7.30997L8.66 10.31L9.52 19.63C9.63527 20.595 10.1121 21.4804 10.8545 22.1076C11.5968 22.7349 12.5493 23.0573 13.52 23.01H23.89C24.7475 23.0316 25.5884 22.7715 26.2839 22.2693C26.9793 21.7672 27.4908 21.0508 27.74 20.23L29.91 12.41C30.0169 12.0227 30.0319 11.6158 29.9538 11.2217C29.8757 10.8276 29.7066 10.4572 29.46 10.14ZM28 11.86L25.83 19.69C25.6948 20.0907 25.4318 20.436 25.0813 20.6727C24.7308 20.9093 24.3122 21.0243 23.89 21H13.48C13.0125 21.0342 12.549 20.8936 12.1794 20.6053C11.8099 20.317 11.5606 19.9017 11.48 19.44L10.73 11H27.1C27.2461 10.9985 27.3908 11.0291 27.5238 11.0896C27.6569 11.15 27.775 11.2389 27.87 11.35C27.9297 11.4191 27.9725 11.5012 27.995 11.5897C28.0176 11.6782 28.0193 11.7707 28 11.86Z" fill="#231F20"/>
<path d="M14 28C15.1046 28 16 27.1046 16 26C16 24.8954 15.1046 24 14 24C12.8954 24 12 24.8954 12 26C12 27.1046 12.8954 28 14 28Z" fill="#231F20"/>
<path d="M24 28C25.1046 28 26 27.1046 26 26C26 24.8954 25.1046 24 24 24C22.8954 24 22 24.8954 22 26C22 27.1046 22.8954 28 24 28Z" fill="#231F20"/>
</svg>
